<svg xmlns:svg="http://www.w3.org/2000/svg" xmlns="http://www.w3.org/2000/svg" width="64" height="64">
	<g style="fill:#ff9934">
		<path d="m 42.4,40.7 c 0.1,-1.9 -1.5,-2.3 -5.1,-1.4 -1.5,0.4 -1.6,0.2 -1.9,0 -0.3,-0.2 -0.3,-1.2 -0.8,-1.3 -0.4,-0.1 -2,-0.1 -4.3,0.4 -0.2,0 -0.5,0.1 -0.7,0.2 h -0.1 c -1,0.2 -1.4,0.3 -1.3,0.4 -0.6,0.2 -1.3,0.4 -1.8,0.6 -0.1,0.1 -0.3,0.1 -0.4,0.2 -0.5,0.2 -1.2,0.3 -1.7,0.4 -0.6,0.2 -1,0.3 -1.2,0.4 -0.4,0.1 -1.9,0.9 -1.9,0.9 0,0 -1.7,1.3 -2.1,0.9 -0.3,-0.3 -0.3,-0.5 -0.1,-0.8 0.3,-0.5 3.2,-1.6 5.2,-2.1 0.7,-0.1 2.3,-0.6 3.5,-1.1 2.8,-1.1 4.4,-1.4 7,-1.4 1.8,0 2.2,-0.1 2.7,-0.5 1.3,-1.1 1.6,-2.7 0.9,-4.1 -0.1,-0.2 -0.4,-0.5 -0.8,-0.7 L 37.4,31.6 C 37.1,31.3 36.9,31.2 36.6,31.2 36.2,31 35.7,30.8 35.2,30.6 l 0,0 c 0,-0.1 -0.4,-0.2 -0.8,-0.2 -0.2,0 -0.3,0 -0.4,0 h -0.1 c -0.1,0.1 -1.7,0.7 -2.3,0.6 h -0.1 c -0.4,-0.1 -0.8,-0.1 -1.2,-0.2 l -3.2,0.5 0,0 c -0.5,0.2 -1,0.4 -1.4,0.7 -0.9,0.5 -1.4,0.7 -2.2,0.7 -0.4,0 -0.7,0 -0.9,0.1 -0.4,0 -0.7,0 -0.9,0.1 -0.4,-0.2 -0.6,-0.2 -1.1,0 -0.6,0.3 -1.3,0.9 -2,1.4 -0.4,0.3 -1.5,2.4 -1.7,2.7 -0.6,0.7 0,3.1 0,3.1 0,0.1 -0.2,1.7 -0.1,2.4 0.1,0.8 0.6,2 0.9,2.4 0.3,0.8 0.6,1.7 1,2.7 0,0.1 0.1,0.2 0.1,0.3 0.1,0.4 0.3,0.7 0.4,1.1 0,1.1 1.4,4.8 1.9,5.3 0.1,0.1 0.3,0.2 0.5,0.3 l 0,0 c 0.4,0.5 0.8,1 1.4,1.4 0.1,0.1 0.2,0.1 0.3,0.2 0.4,0.3 0.8,0.5 1.3,0.7 0.5,0.1 1.2,0.3 1.7,0.5 1.2,0 3,-0.5 3.3,-1.3 0.7,-0.9 3.4,-0.8 3.9,-0.8 h 0.7 c 0,0 1.3,0.3 2.6,0.5 0.3,0 0.6,0 0.8,0 1.7,0.2 3.7,-0.6 4.5,-1.9 0.3,-0.6 1.3,-3.4 2.3,-6.3 0.5,-1.5 0.2,-2.5 -1.1,-3.8 -0.9,-0.9 -1,-1.2 -0.9,-3.1 z" style="fill:#ff9934;stroke:#ffffff;stroke-width:6" />
		<path d="m 57.7,34.9 c -0.5,-0.4 -0.8,-0.6 -1.7,-0.6 -0.2,0 -0.5,0 -0.9,0 -1.2,0 -1.9,0.2 -2.5,0.7 -0.6,0.5 -0.8,0.7 -0.8,0.7 l -0.4,0.5 c -0.2,0.3 -0.4,0.8 -0.6,1 -0.3,0.5 -2.6,3.2 -3.2,3.5 -0.7,0.4 -2.2,1.4 -2.4,2 -0.2,0.8 -0.1,1.4 0.4,2.2 0.2,0.3 0.4,0.5 0.5,0.5 l 0.5,0.2 1.5,-1 c 1.2,-1 3.8,-2.5 3.8,-2.5 0.1,-0.1 0.9,-0.4 2,-0.9 2.3,-1.1 3.5,-2.1 4.2,-3.4 0.8,-1 0.6,-2.1 -0.4,-2.9 z" style="fill:#ff9934;stroke:#ffffff;stroke-width:6" />
		<path d="m 19.9,25.4 c -0.1,0 -0.2,0.1 -0.2,0.2 -0.2,0.1 -0.4,0.2 -0.4,0.3 0,0.4 0.5,1.8 1.1,2.7 0.2,0.4 0.6,0.7 0.9,0.8 0.5,0.4 1.1,0.4 1.5,-0.2 0.8,-0.7 0.5,-3.7 -0.4,-4.7 -0.2,-0.2 -0.4,-0.2 -1.2,0.2 -0.5,0.4 -1.1,0.6 -1.3,0.7 z" style="fill:#ff9934;stroke:#ffffff;stroke-width:6" />
		<path d="M 16.9,32.8 C 17,32.6 17,32.5 17,32.2 17,31.3 15.8,29.1 14.6,27.9 14,27.3 13.3,26.3 13.1,26 12.9,25.7 12,24.5 11,23.5 10.1,22.6 9.1,21.3 8.8,20.8 8.5,20.1 8.2,19.6 7.8,19.2 L 7.7,18.7 c -0.8,-0.9 -1.7,-0.8 -2,0 -0.4,0.4 -0.4,1.1 0,2.1 0.1,0.2 0.1,0.3 0.2,0.4 0,0.1 0.1,0.3 0.1,0.4 l 0.2,0.7 c 0.2,0.3 0.5,0.7 0.7,0.7 0.2,0 0.9,-0.1 1.5,-0.4 l 0.1,0.1 c -0.4,0.6 -1.1,0.7 -0.9,1.6 0.2,0.8 2.9,4.1 3.5,4.2 0.2,0.1 0.4,0.1 0.6,0.1 0.3,0.1 0.6,0 0.8,-0.1 0.2,-0.2 0.4,-0.3 0.6,-0.2 -0.1,0.2 -0.2,0.4 -0.5,0.6 -0.4,0.5 0.5,1.2 0.8,1.6 l 0.1,0.1 c 0.2,0.3 0.4,0.6 0.7,0.9 0.1,0.2 0.2,0.3 0.4,0.6 0.2,0.4 0.5,0.7 0.5,0.9 0.1,0 0.6,1.2 1.7,0.1 0.1,0 0.1,-0.1 0.1,-0.3 z" style="fill:#ff9934;stroke:#ffffff;stroke-width:6" />
		<path d="m 35.3,29.2 c 0.8,0.6 1.7,0 2.3,-1.8 0.5,-1.3 1.1,-3.9 1.2,-4.4 0.3,-1.1 0.2,-3.1 -0.2,-3.5 -0.2,-0.2 -0.2,-0.7 0.5,-1.3 l 0.3,-0.9 0.1,-2.1 c 0,-1.3 0,-3.1 0.1,-4 0.1,-1.2 0.1,-1.8 -0.3,-2.3 -0.6,-1.3 -2,-1.3 -2.9,0 -0.5,0.7 -0.5,1 -0.6,4.3 l -0.1,3.6 c 0,0 0.1,1.6 0,1.8 -0.1,0.1 -0.1,0.1 -0.1,0.2 l 0,0 v 0.1 c -0.2,0.2 -0.1,0.6 -0.2,0.7 -0.2,1 -0.1,1.9 -0.1,3.2 0,0 0.2,0.2 0,1.3 -0.5,0.8 -1.2,3.6 -0.7,4.6 0.1,0.4 0.5,0.5 0.7,0.5 z" style="fill:#ff9934;stroke:#ffffff;stroke-width:6" />
		<path d="m 25.2,14.1 c 0.2,0.7 0.4,2.2 0.5,3.4 0.1,1.5 0.3,2.2 0.6,2.5 l 0,0 c 0.1,0.5 0.1,0.9 0.2,1.2 0,0.1 0.4,1.2 0.4,1.2 0.1,0.1 0.8,0.1 0.9,0.2 0.3,0.2 0.4,1 0.1,1.1 -0.4,0.3 -0.5,0.6 -0.5,1.4 0,1 0.2,3.1 0.5,3.4 0,0.3 0.7,0.2 1.4,0.2 0.2,0 0.9,-0.3 1.2,-0.6 0.6,-0.4 0.8,-1.3 0.8,-2.7 0,-1.2 0,-1.3 -0.7,-1.7 -0.8,-0.5 -0.9,-0.7 -0.1,-1 0.5,-0.2 0.6,-0.4 0.6,-1.1 0.1,-1.8 -0.4,-4.1 -0.8,-4.3 -0.2,0 -0.8,0 -1.5,0.1 -0.7,0.1 -1.4,-1 -0.3,-1.6 0.1,0 0.1,0 0.2,0 0.9,0 1.6,-0.8 1.5,-1.1 C 30.2,14.5 30,13.3 29.8,12 29.3,9.1 29,7.5 28.6,7.2 28.5,7.1 28,6.9 27.6,6.8 c -0.4,-0.1 -0.7,0 -1,0.2 -0.4,0.1 -0.9,0.3 -1.2,0.7 -0.6,0.6 -0.6,0.7 -0.5,2.9 0,1.2 0.1,2.8 0.3,3.5 z" style="fill:#ff9934;stroke:#ffffff;stroke-width:6" />
		<path d="m 16.9,17.8 c -0.2,0 -0.3,0.1 -0.8,0.4 -0.2,0.2 -0.1,0.5 0,0.7 0.1,0.3 0.3,0.8 0.3,0.9 0.2,0.5 0.7,1.4 1.3,2.2 0.3,0.6 0.6,1.2 0.9,1.7 -0.1,0.1 0.3,0.7 0.4,0.6 0.1,0.1 0.1,0.1 0.1,0.1 0.6,0.5 0.9,0.3 1.1,-0.7 0,-0.5 0.1,-0.8 0.7,-1.1 0.7,-0.4 0.7,-0.4 0.6,-1.7 -0.2,-1.7 -0.8,-3.4 -1.5,-3.9 -0.5,-0.4 -0.8,-0.5 -1.4,-0.2 -0.2,0.1 -0.9,0.5 -1.7,1 z" style="fill:#ff9934;stroke:#ffffff;stroke-width:6;stroke-miterlimit:10" />
		<path d="m 15.8,16 c 0.2,0.1 1.1,0.3 1.2,0.3 0.1,0.3 1.4,-0.7 1.6,-0.7 0.4,0 0.4,-0.2 0.3,-1.3 C 18.8,12.7 18,10.8 17.1,9.8 16.3,8.9 15.4,8.8 14.5,9.5 l -0.1,0.1 c 0,0 -0.8,2.1 0.2,4.5 0.5,1.7 0.6,1.9 1.2,1.9 z" style="fill:#ff9934;stroke:#ffffff;stroke-width:6" />
	</g>
	<g>
		<path style="fill:#ff9934" d="m 42.4,40.7 c 0.1,-1.9 -1.5,-2.3 -5.1,-1.4 -1.5,0.4 -1.6,0.2 -1.9,0 -0.3,-0.2 -0.3,-1.2 -0.8,-1.3 -0.4,-0.1 -2,-0.1 -4.3,0.4 -0.2,0 -0.5,0.1 -0.7,0.2 h -0.1 c -1,0.2 -1.4,0.3 -1.3,0.4 -0.6,0.2 -1.3,0.4 -1.8,0.6 -0.1,0.1 -0.3,0.1 -0.4,0.2 -0.5,0.2 -1.2,0.3 -1.7,0.4 -0.6,0.2 -1,0.3 -1.2,0.4 -0.4,0.1 -1.9,0.9 -1.9,0.9 0,0 -1.7,1.3 -2.1,0.9 -0.3,-0.3 -0.3,-0.5 -0.1,-0.8 0.3,-0.5 3.2,-1.6 5.2,-2.1 0.7,-0.1 2.3,-0.6 3.5,-1.1 2.8,-1.1 4.4,-1.4 7,-1.4 1.8,0 2.2,-0.1 2.7,-0.5 1.3,-1.1 1.6,-2.7 0.9,-4.1 -0.1,-0.2 -0.4,-0.5 -0.8,-0.7 L 37.4,31.6 C 37.1,31.3 36.9,31.2 36.6,31.2 36.2,31 35.7,30.8 35.2,30.6 l 0,0 c 0,-0.1 -0.4,-0.2 -0.8,-0.2 -0.2,0 -0.3,0 -0.4,0 h -0.1 c -0.1,0.1 -1.7,0.7 -2.3,0.6 h -0.1 c -0.4,-0.1 -0.8,-0.1 -1.2,-0.2 l -3.2,0.5 0,0 c -0.5,0.2 -1,0.4 -1.4,0.7 -0.9,0.5 -1.4,0.7 -2.2,0.7 -0.4,0 -0.7,0 -0.9,0.1 -0.4,0 -0.7,0 -0.9,0.1 -0.4,-0.2 -0.6,-0.2 -1.1,0 -0.6,0.3 -1.3,0.9 -2,1.4 -0.4,0.3 -1.5,2.4 -1.7,2.7 -0.6,0.7 0,3.1 0,3.1 0,0.1 -0.2,1.7 -0.1,2.4 0.1,0.8 0.6,2 0.9,2.4 0.3,0.8 0.6,1.7 1,2.7 0,0.1 0.1,0.2 0.1,0.3 0.1,0.4 0.3,0.7 0.4,1.1 0,1.1 1.4,4.8 1.9,5.3 0.1,0.1 0.3,0.2 0.5,0.3 l 0,0 c 0.4,0.5 0.8,1 1.4,1.4 0.1,0.1 0.2,0.1 0.3,0.2 0.4,0.3 0.8,0.5 1.3,0.7 0.5,0.1 1.2,0.3 1.7,0.5 1.2,0 3,-0.5 3.3,-1.3 0.7,-0.9 3.4,-0.8 3.9,-0.8 h 0.7 c 0,0 1.3,0.3 2.6,0.5 0.3,0 0.6,0 0.8,0 1.7,0.2 3.7,-0.6 4.5,-1.9 0.3,-0.6 1.3,-3.4 2.3,-6.3 0.5,-1.5 0.2,-2.5 -1.1,-3.8 -0.9,-0.9 -1,-1.2 -0.9,-3.1 z" />
		<path style="fill:#ff9934" d="m 57.7,34.9 c -0.5,-0.4 -0.8,-0.6 -1.7,-0.6 -0.2,0 -0.5,0 -0.9,0 -1.2,0 -1.9,0.2 -2.5,0.7 -0.6,0.5 -0.8,0.7 -0.8,0.7 l -0.4,0.5 c -0.2,0.3 -0.4,0.8 -0.6,1 -0.3,0.5 -2.6,3.2 -3.2,3.5 -0.7,0.4 -2.2,1.4 -2.4,2 -0.2,0.8 -0.1,1.4 0.4,2.2 0.2,0.3 0.4,0.5 0.5,0.5 l 0.5,0.2 1.5,-1 c 1.2,-1 3.8,-2.5 3.8,-2.5 0.1,-0.1 0.9,-0.4 2,-0.9 2.3,-1.1 3.5,-2.1 4.2,-3.4 0.8,-1 0.6,-2.1 -0.4,-2.9 z" />
		<path style="fill:#ff9934" d="m 19.9,25.4 c -0.1,0 -0.2,0.1 -0.2,0.2 -0.2,0.1 -0.4,0.2 -0.4,0.3 0,0.4 0.5,1.8 1.1,2.7 0.2,0.4 0.6,0.7 0.9,0.8 0.5,0.4 1.1,0.4 1.5,-0.2 0.8,-0.7 0.5,-3.7 -0.4,-4.7 -0.2,-0.2 -0.4,-0.2 -1.2,0.2 -0.5,0.4 -1.1,0.6 -1.3,0.7 z" />
		<path style="fill:#ff9934" d="M 16.9,32.8 C 17,32.6 17,32.5 17,32.2 17,31.3 15.8,29.1 14.6,27.9 14,27.3 13.3,26.3 13.1,26 12.9,25.7 12,24.5 11,23.5 10.1,22.6 9.1,21.3 8.8,20.8 8.5,20.1 8.2,19.6 7.8,19.2 L 7.7,18.7 c -0.8,-0.9 -1.7,-0.8 -2,0 -0.4,0.4 -0.4,1.1 0,2.1 0.1,0.2 0.1,0.3 0.2,0.4 0,0.1 0.1,0.3 0.1,0.4 l 0.2,0.7 c 0.2,0.3 0.5,0.7 0.7,0.7 0.2,0 0.9,-0.1 1.5,-0.4 l 0.1,0.1 c -0.4,0.6 -1.1,0.7 -0.9,1.6 0.2,0.8 2.9,4.1 3.5,4.2 0.2,0.1 0.4,0.1 0.6,0.1 0.3,0.1 0.6,0 0.8,-0.1 0.2,-0.2 0.4,-0.3 0.6,-0.2 -0.1,0.2 -0.2,0.4 -0.5,0.6 -0.4,0.5 0.5,1.2 0.8,1.6 l 0.1,0.1 c 0.2,0.3 0.4,0.6 0.7,0.9 0.1,0.2 0.2,0.3 0.4,0.6 0.2,0.4 0.5,0.7 0.5,0.9 0.1,0 0.6,1.2 1.7,0.1 0.1,0 0.1,-0.1 0.1,-0.3 z" />
		<path style="fill:#ff9934" d="m 35.3,29.2 c 0.8,0.6 1.7,0 2.3,-1.8 0.5,-1.3 1.1,-3.9 1.2,-4.4 0.3,-1.1 0.2,-3.1 -0.2,-3.5 -0.2,-0.2 -0.2,-0.7 0.5,-1.3 l 0.3,-0.9 0.1,-2.1 c 0,-1.3 0,-3.1 0.1,-4 0.1,-1.2 0.1,-1.8 -0.3,-2.3 -0.6,-1.3 -2,-1.3 -2.9,0 -0.5,0.7 -0.5,1 -0.6,4.3 l -0.1,3.6 c 0,0 0.1,1.6 0,1.8 -0.1,0.1 -0.1,0.1 -0.1,0.2 l 0,0 v 0.1 c -0.2,0.2 -0.1,0.6 -0.2,0.7 -0.2,1 -0.1,1.9 -0.1,3.2 0,0 0.2,0.2 0,1.3 -0.5,0.8 -1.2,3.6 -0.7,4.6 0.1,0.4 0.5,0.5 0.7,0.5 z" />
		<path style="fill:#ff9934" d="m 25.2,14.1 c 0.2,0.7 0.4,2.2 0.5,3.4 0.1,1.5 0.3,2.2 0.6,2.5 l 0,0 c 0.1,0.5 0.1,0.9 0.2,1.2 0,0.1 0.4,1.2 0.4,1.2 0.1,0.1 0.8,0.1 0.9,0.2 0.3,0.2 0.4,1 0.1,1.1 -0.4,0.3 -0.5,0.6 -0.5,1.4 0,1 0.2,3.1 0.5,3.4 0,0.3 0.7,0.2 1.4,0.2 0.2,0 0.9,-0.3 1.2,-0.6 0.6,-0.4 0.8,-1.3 0.8,-2.7 0,-1.2 0,-1.3 -0.7,-1.7 -0.8,-0.5 -0.9,-0.7 -0.1,-1 0.5,-0.2 0.6,-0.4 0.6,-1.1 0.1,-1.8 -0.4,-4.1 -0.8,-4.3 -0.2,0 -0.8,0 -1.5,0.1 -0.7,0.1 -1.4,-1 -0.3,-1.6 0.1,0 0.1,0 0.2,0 0.9,0 1.6,-0.8 1.5,-1.1 C 30.2,14.5 30,13.3 29.8,12 29.3,9.1 29,7.5 28.6,7.2 28.5,7.1 28,6.9 27.6,6.8 c -0.4,-0.1 -0.7,0 -1,0.2 -0.4,0.1 -0.9,0.3 -1.2,0.7 -0.6,0.6 -0.6,0.7 -0.5,2.9 0,1.2 0.1,2.8 0.3,3.5 z" />
		<path style="fill:#ff9934" d="m 16.9,17.8 c -0.2,0 -0.3,0.1 -0.8,0.4 -0.2,0.2 -0.1,0.5 0,0.7 0.1,0.3 0.3,0.8 0.3,0.9 0.2,0.5 0.7,1.4 1.3,2.2 0.3,0.6 0.6,1.2 0.9,1.7 -0.1,0.1 0.3,0.7 0.4,0.6 0.1,0.1 0.1,0.1 0.1,0.1 0.6,0.5 0.9,0.3 1.1,-0.7 0,-0.5 0.1,-0.8 0.7,-1.1 0.7,-0.4 0.7,-0.4 0.6,-1.7 -0.2,-1.7 -0.8,-3.4 -1.5,-3.9 -0.5,-0.4 -0.8,-0.5 -1.4,-0.2 -0.2,0.1 -0.9,0.5 -1.7,1 z" />
		<path style="fill:#ff9934" d="m 15.8,16 c 0.2,0.1 1.1,0.3 1.2,0.3 0.1,0.3 1.4,-0.7 1.6,-0.7 0.4,0 0.4,-0.2 0.3,-1.3 C 18.8,12.7 18,10.8 17.1,9.8 16.3,8.9 15.4,8.8 14.5,9.5 l -0.1,0.1 c 0,0 -0.8,2.1 0.2,4.5 0.5,1.7 0.6,1.9 1.2,1.9 z" />
	</g>
</svg>