<?xml version="1.0" encoding="UTF-8" standalone="no"?>
<!-- Created with Inkscape (http://www.inkscape.org/) -->

<svg
   xmlns:dc="http://purl.org/dc/elements/1.1/"
   xmlns:cc="http://creativecommons.org/ns#"
   xmlns:rdf="http://www.w3.org/1999/02/22-rdf-syntax-ns#"
   xmlns:svg="http://www.w3.org/2000/svg"
   xmlns="http://www.w3.org/2000/svg"
   xmlns:sodipodi="http://sodipodi.sourceforge.net/DTD/sodipodi-0.dtd"
   xmlns:inkscape="http://www.inkscape.org/namespaces/inkscape"
   width="256"
   height="256"
   viewBox="0 0 256 256"
   id="svg4903"
   version="1.1"
   inkscape:version="0.91 r13725"
   sodipodi:docname="icon.svg"
   inkscape:export-filename="A:\git\pka\src\main\webapp\img\icon-76.png"
   inkscape:export-xdpi="76"
   inkscape:export-ydpi="76">
  <defs
     id="defs4905" />
  <sodipodi:namedview
     id="base"
     pagecolor="#ffffff"
     bordercolor="#666666"
     borderopacity="1.0"
     inkscape:pageopacity="0.0"
     inkscape:pageshadow="2"
     inkscape:zoom="2.6132812"
     inkscape:cx="128"
     inkscape:cy="128"
     inkscape:document-units="px"
     inkscape:current-layer="layer1"
     showgrid="false"
     units="px"
     inkscape:window-width="1600"
     inkscape:window-height="838"
     inkscape:window-x="-8"
     inkscape:window-y="152"
     inkscape:window-maximized="1" />
  <metadata
     id="metadata4908">
    <rdf:RDF>
      <cc:Work
         rdf:about="">
        <dc:format>image/svg+xml</dc:format>
        <dc:type
           rdf:resource="http://purl.org/dc/dcmitype/StillImage" />
        <dc:title></dc:title>
      </cc:Work>
    </rdf:RDF>
  </metadata>
  <g
     inkscape:label="Layer 1"
     inkscape:groupmode="layer"
     id="layer1"
     transform="translate(0,-796.36216)">
    <rect
       style="fill:#ffffff;fill-opacity:1;stroke:none;stroke-width:2;stroke-miterlimit:4;stroke-dasharray:none;stroke-opacity:1"
       id="rect4911"
       width="256"
       height="256"
       x="0"
       y="796.36218"
       ry="49.363228" />
    <g
       id="g5506"
       transform="translate(0.18859863,5.0315522)">
      <g
         id="g4891"
         transform="matrix(1.3422819,0,0,1.3422819,27.999998,827.46283)">
        <g
           style="fill:#80b34e;fill-opacity:1;stroke:none;stroke-opacity:1"
           id="g5">
          <g
             style="fill:#80b34e;fill-opacity:1;stroke:none;stroke-opacity:1"
             id="g7">
            <polygon
               style="fill:#80b34e;fill-opacity:1;stroke:none;stroke-opacity:1"
               id="polygon9"
               points="18.6,35.3 34.1,50.8 46.6,50.8 49.7,47.7 49.7,4.3 46.6,1.2 34.1,1.2 31,4.3 31,16.7 15.5,1.2 3.1,1.2 0,4.3 0,47.7 3.1,50.8 15.5,50.8 18.6,47.7 " />
          </g>
        </g>
        <g
           style="fill:#f8993a;fill-opacity:1;stroke:none;stroke-opacity:1"
           id="g11">
          <g
             style="fill:#f8993a;fill-opacity:1;stroke:none;stroke-opacity:1"
             id="g13">
            <polyline
               style="fill:#f8993a;fill-opacity:1;stroke:none;stroke-opacity:1"
               id="polyline15"
               points="49.7,22.9 65.2,38.4 65.2,47.7 68.3,50.8 80.7,50.8 83.8,47.7 83.8,38.4 99.3,22.9 99.3,10.5      99.3,4.3 96.2,1.2 83.8,1.2 80.7,4.3 80.7,10.5 74.5,16.7 68.3,10.5 68.3,4.3 65.2,1.2 52.8,1.2 49.7,4.3    " />
          </g>
        </g>
        <g
           style="fill:#679acd;fill-opacity:1;stroke:none;stroke-opacity:1"
           id="g17">
          <g
             style="fill:#679acd;fill-opacity:1;stroke:none;stroke-opacity:1"
             id="g19">
            <g
               style="fill:#679acd;fill-opacity:1;stroke:none;stroke-opacity:1"
               id="g21">
              <polyline
                 style="fill:#679acd;fill-opacity:1;stroke:none;stroke-opacity:1"
                 id="polyline23"
                 points="99.3,41.5 108.6,50.8 139.7,50.8 149,41.5 149,32.2 145.9,29.1 130.4,29.1 130.4,32.2       118,32.2 118,19.8 130.4,19.8 130.4,22.9 145.9,22.9 149,19.8 149,10.5 139.7,1.2 108.6,1.2 99.3,10.5     " />
            </g>
          </g>
        </g>
      </g>
      <text
         sodipodi:linespacing="80.000001%"
         id="text5498"
         y="955.58484"
         x="124.47949"
         style="font-style:normal;font-variant:normal;font-weight:normal;font-stretch:normal;font-size:66.25px;line-height:80.00000119%;font-family:sans-serif;-inkscape-font-specification:'sans-serif, Normal';text-align:center;letter-spacing:0px;word-spacing:0px;writing-mode:lr-tb;text-anchor:middle;fill:#013364;fill-opacity:1;stroke:none;stroke-width:1px;stroke-linecap:butt;stroke-linejoin:miter;stroke-opacity:1"
         xml:space="preserve"><tspan
           y="955.58484"
           x="124.47949"
           id="tspan5502"
           sodipodi:role="line">Pre-K</tspan><tspan
           y="1008.5848"
           x="124.47949"
           id="tspan5504"
           sodipodi:role="line">Finder</tspan></text>
    </g>
  </g>
</svg>
