<svg xmlns="http://www.w3.org/2000/svg" width="512px" height="512px"><path style="fill:#013364" d="M34,144.063v-36c0.031-6.406,7.406-17.844,7.719-18.125C98.188,32.5,175.438,0,256.063,0 c80.813,0,158.313,32.656,214.813,90.438c0.063,0,7.125,11.25,7.125,17.625v36c0,13.188-9.688,28.875-21.5,34.75l-5.063,2.5 c-11.75,5.938-30.813,5.375-42.25-1.125L366.875,156c-11.5-6.563-21.063-22.75-21.063-35.938V96.031 C290.313,64.094,221.719,64.125,166.188,96v24.063c0,13.188-9.563,29.313-21,35.938l-42.375,24.125 c-11.406,6.563-30.438,7.125-42.281,1.188l-5.031-2.5C43.688,172.875,34,157.25,34,144.063z M480,352v128c0,17.594-14.375,32-32,32 H64c-17.563,0-32-14.406-32-32V352c0-17.594,10.188-42.188,22.625-54.625l82.75-82.75C149.813,202.188,174.438,192,192,192v-32 c15.125-20.125,38.813-32,64-32s48.938,11.875,64,32v32c17.625,0,42.188,10.188,54.625,22.625l82.75,82.75 C469.813,309.813,480,334.406,480,352z M352,352c0-53.031-42.938-96-96-96c-53,0-96,42.969-96,96s43,96,96,96 C309.063,448,352,405.031,352,352z M256,288c-35.281,0-64,28.719-64,64s28.719,64,64,64c35.313,0,64-28.719,64-64 S291.313,288,256,288z"/></svg>
