<svg xmlns:svg="http://www.w3.org/2000/svg" xmlns="http://www.w3.org/2000/svg" width="64" height="64"><rect ry="4.0154648" y="-61.978207" x="10.645944" height="59.956417" width="42.70808" style="fill:none;stroke:#013364;stroke-width:4.05174208" transform="matrix(0,1,-1,0,0,0)"/><g transform="translate(10,5.4179332)"><rect style="fill:#013364" width="17.568909" height="4.0291905" x="26.860985" y="13.674219" ry="2.0145953"/><rect style="fill:#013364" width="17.568909" height="4.0291905" x="26.860985" y="35.460724" ry="2.0145953"/><rect style="fill:#013364" width="17.568909" height="4.0291905" x="26.860985" y="24.567503" ry="2.0145953"/></g><path d="m 27.66917,26.71042 c 0,4.646295 -3.767492,8.412864 -8.41493,8.412864 -4.647437,0 -8.414929,-3.766569 -8.414929,-8.412864 0,-4.646297 3.767492,-8.412865 8.414929,-8.412865 4.647438,0 8.41493,3.766568 8.41493,8.412865 z" style="fill:#013364"/><path d="m 19.254248,36.396427 c -6.973163,0 -12.6258888,4.088854 -12.6258888,9.132774 0,0.0398 0.00561,0.07899 0.00631,0.118666 l 25.2391568,0 c 8.07e-4,-0.03968 0.0063,-0.07887 0.0063,-0.118666 0,-5.04392 -5.652727,-9.132774 -12.625891,-9.132774 z" style="fill:#013364"/></svg>