<svg xmlns="http://www.w3.org/2000/svg" width="512" height="512"><g transform="translate(0,-540.36216)"><path style="fill:#013364" d="m 232.54271,936.565 c -30.25356,-5.37255 -55.22542,-18.37775 -76.89294,-40.04529 -20.10899,-20.10878 -32.85411,-43.26783 -38.71198,-70.34292 -3.10432,-14.34818 -3.32028,-43.93188 -0.41973,-57.49704 6.17591,-28.88326 16.96481,-49.24086 37.29576,-70.37351 21.6867,-22.54185 45.74969,-35.68375 76.67081,-41.87346 11.57796,-2.31764 42.65339,-1.79087 55.26042,0.93674 42.32362,9.15699 78.89079,37.97529 98.1684,77.36574 10.27308,20.99127 14.45068,41.90188 13.48034,67.47473 -0.88848,23.41577 -5.04568,39.5742 -15.27903,59.38734 -18.81967,36.43742 -54.3955,64.16072 -94.15294,73.37071 -12.30145,2.84965 -43.32979,3.74379 -55.41911,1.59696 z m 49.8772,-33.86906 c 13.01797,-3.16797 31.77848,-12.69463 42.11852,-21.38767 22.24789,-18.70431 37.09529,-46.55952 39.77597,-74.6237 0.4317,-4.51953 0.43813,-8.21733 0.0143,-8.21733 -0.42384,0 -2.94132,1.24092 -5.59438,2.7576 -2.65307,1.51669 -5.91656,2.76362 -7.2522,2.77095 -3.51627,0.0193 -4.1298,1.87382 -0.88905,2.6872 4.32431,1.08533 3.67645,5.94732 -1.69859,12.74726 -2.45405,3.1046 -4.74144,7.26425 -5.0831,9.24369 -0.65212,3.77804 -2.77384,11.2792 -5.56384,19.6705 -0.91208,2.74324 -2.29698,7.23216 -3.07754,9.97541 -2.07752,7.30135 -4.48122,11.42841 -8.93271,15.33675 -4.40328,3.86614 -8.1646,5.17891 -12.04678,4.20453 -2.0915,-0.52493 -3.49754,-2.96769 -7.31402,-12.70678 -4.52738,-11.55333 -4.69355,-12.39936 -3.97759,-20.25246 0.58808,-6.45052 0.35081,-9.13174 -1.11441,-12.59286 -1.02386,-2.41856 -1.93426,-6.15935 -2.02311,-8.31287 l -0.16155,-3.91547 -9.76928,-0.66783 c -11.14652,-0.76199 -14.19392,-2.36144 -17.85337,-9.37044 -3.23093,-6.18827 -2.98482,-15.91015 0.58765,-23.21319 5.57305,-11.39279 5.36965,-11.2465 17.74625,-12.76263 14.18357,-1.73747 19.02424,-1.12775 26.07475,3.28431 l 5.70216,3.5683 4.52095,-2.99182 c 5.25052,-3.47462 5.06595,-4.46982 -2.01557,-10.86755 -5.16776,-4.66877 -6.93245,-4.92762 -12.10302,-1.77535 -3.26008,1.98753 -4.81303,2.18317 -12.20854,1.53805 -6.32053,-0.55134 -9.9955,-0.28709 -14.4645,1.04005 -3.29513,0.97855 -6.06723,1.65619 -6.1602,1.50585 -0.844,-1.36471 -3.8875,-10.67155 -3.8875,-11.88774 0,-0.86068 1.23062,-2.84936 2.7347,-4.41928 1.77405,-1.85171 3.26937,-5.40509 4.25674,-10.11547 1.89667,-9.04824 6.92285,-18.46317 11.29634,-21.16 4.99426,-3.07966 15.90831,-6.18779 24.80707,-7.06466 9.50026,-0.93612 9.38357,-1.24946 -3.64282,-9.78119 -7.0341,-4.60704 -10.55494,-6.15325 -16.3038,-7.15999 -12.11807,-2.12212 -16.23242,-1.69008 -24.74726,2.59872 -6.28758,3.16697 -8.92316,3.87293 -14.40896,3.85954 -8.8028,-0.0215 -18.97935,-2.49128 -30.30204,-7.35414 l -9.17923,-3.94229 -5.95011,2.41498 c -7.26605,2.94907 -21.81732,11.36879 -23.82153,13.78371 -1.29417,1.55939 -0.98931,1.76442 2.62358,1.76442 5.5529,0 7.59908,1.23657 17.24279,10.42038 8.6584,8.2455 13.00297,10.95447 20.5639,12.8222 4.88832,1.20754 13.79593,8.09955 13.79593,10.67421 0,0.88053 -1.91293,3.7096 -4.25098,6.28682 -2.33803,2.57722 -4.54959,5.51376 -4.91458,6.52562 -0.37575,1.04166 -3.25528,2.59319 -6.63776,3.5765 -9.13836,2.65659 -12.25811,7.91076 -11.13847,18.759 0.81119,7.85977 -1.16075,14.0729 -4.45595,14.03959 -2.90542,-0.0294 -11.2559,-3.69332 -12.31202,-5.40215 -1.56325,-2.5294 -2.68275,-1.09696 -1.59078,2.03545 0.71033,2.03766 2.03887,3.38824 3.54458,3.60337 1.83411,0.26206 2.36315,1.03774 2.21865,3.25292 -0.28813,4.41679 3.69169,5.72457 14.64449,4.8122 10.37846,-0.86451 13.75646,0.35351 24.02013,8.66106 3.22323,2.60893 9.94897,7.4292 14.9461,10.7117 5.35959,3.52062 9.5697,7.14298 10.26592,8.83279 1.631,3.95859 -0.39587,19.07425 -3.38588,25.25075 -1.46526,3.02688 -4.72347,6.64996 -8.80393,9.78979 -8.09339,6.22767 -10.84874,10.0624 -12.91486,17.97432 -0.89585,3.43067 -3.12346,9.19836 -4.95023,12.81722 -1.82678,3.61876 -2.9091,6.98359 -2.40517,7.47726 2.88866,2.82981 32.53988,2.09839 45.80574,-1.13011 z m -66.17505,-26.35639 1.85571,-20.7737 -5.80242,-12.20065 c -5.34716,-11.24341 -5.81843,-12.88901 -6.00654,-20.97346 -0.18886,-8.11591 -0.45003,-9.01867 -3.48797,-12.05662 -2.2663,-2.26629 -7.79988,-4.93156 -17.85808,-8.60141 -16.70127,-6.09366 -23.02684,-9.79923 -30.85237,-18.07359 l -5.55834,-5.87711 -0.65658,3.96892 c -1.20268,7.26993 -0.70156,24.06558 1.01103,33.88637 2.17105,12.44968 7.63699,26.948 14.49909,38.45872 5.90879,9.91149 20.60619,25.6794 29.80676,31.97774 6.55993,4.49072 18.35061,10.97741 20.01825,11.01321 0.72342,0.0155 1.88966,-7.96672 3.03146,-20.74842 z"/><path style="fill:none;stroke:#013364;stroke-width:33.25146484;stroke-linecap:round" d="m 397.23929,710.06244 a 78.264018,242.6611 80 0 1 97.73523,44.16205 l 0,0 a 78.264018,242.6611 80 0 1 -76.54431,74.83699"/><path style="fill:none;stroke:#013364;stroke-width:33.25146484;stroke-linecap:round" d="M 114.76067,882.66186 A 78.264018,242.6611 80 0 1 17.025452,838.49981 78.264018,242.6611 80 0 1 93.569758,763.66282"/><path style="fill:none;stroke:#013364;stroke-width:33.25146484;stroke-linecap:round" d="m 418.43021,829.06148 a 78.264018,242.6611 80 0 1 -148.83983,44.37568 78.264018,242.6611 80 0 1 -154.82971,9.2247"/></g></svg>
